<svg preserveAspectRatio="none" width="100%" height="100%" overflow="visible" style="display: block;" viewBox="0 0 22 22" fill="none" xmlns="http://www.w3.org/2000/svg">
<g id="SVG">
<path id="Wz76y8pzV" d="M10.0833 10.9236C11.4757 10.9236 12.6042 9.79512 12.6042 8.40278C12.6042 7.01044 11.4757 5.88194 10.0833 5.88194C8.69099 5.88194 7.5625 7.01044 7.5625 8.40278C7.5625 9.79512 8.69099 10.9236 10.0833 10.9236V10.9236" stroke="var(--stroke-0, #419636)" stroke-width="1.68056" stroke-linecap="round" stroke-linejoin="round"/>
<path id="y7nCGsesd" d="M14.9569 11.7118H14.9477C16.6299 9.24642 16.198 5.91135 13.9436 3.95435C11.6899 1.99818 8.32715 2.04019 6.1231 4.05266C3.91822 6.06513 3.57118 9.41027 5.31476 11.8328H5.30131L5.41895 11.9765C5.50298 12.0832 5.58701 12.1874 5.67103 12.2882L10.0833 17.6458L14.394 12.3958C14.557 12.2202 14.7082 12.0353 14.8477 11.842L14.9569 11.7118" stroke="var(--stroke-0, #419636)" stroke-width="1.68056" stroke-linecap="round" stroke-linejoin="round"/>
</g>
</svg>
