<svg preserveAspectRatio="none" width="100%" height="100%" overflow="visible" style="display: block;" viewBox="0 0 40 40" fill="none" xmlns="http://www.w3.org/2000/svg">
<g id="SVG" clip-path="url(#clip0_0_43)">
<path id="idpLgXrGl" d="M26.3889 38.5167C30.4556 35.2722 36.225 35.2861 40.2778 38.5444" stroke="var(--stroke-0, white)" stroke-width="5.55556" stroke-linecap="round" stroke-linejoin="round"/>
<path id="AQYoCwKFn" d="M33.3333 47.2222H33.3611" stroke="var(--stroke-0, white)" stroke-width="5.55556" stroke-linecap="round" stroke-linejoin="round"/>
<path id="tYb18PkRC" d="M8.33333 27.7778C8.33333 26.1444 9.05278 24.5917 10.3028 23.5333L29.7472 6.86667C31.8167 5.11944 34.85 5.11944 36.9194 6.86667L56.3639 23.5333C57.6139 24.5917 58.3333 26.1444 58.3333 27.7778V52.7778C58.3333 55.8472 55.8472 58.3333 52.7778 58.3333H13.8889C10.8194 58.3333 8.33333 55.8472 8.33333 52.7778V27.7778" stroke="var(--stroke-0, white)" stroke-width="5.55556" stroke-linecap="round" stroke-linejoin="round"/>
<path id="sA7PJO4j4" d="M19.4444 29.8722C27.5639 23.3722 39.1028 23.3722 47.2222 29.8722" stroke="var(--stroke-0, white)" stroke-width="5.55556" stroke-linecap="round" stroke-linejoin="round"/>
</g>
<defs>
<clipPath id="clip0_0_43">
<rect width="40" height="40" fill="white"/>
</clipPath>
</defs>
</svg>
