<svg preserveAspectRatio="none" width="100%" height="100%" overflow="visible" style="display: block;" viewBox="0 0 40 40" fill="none" xmlns="http://www.w3.org/2000/svg">
<g id="SVG" clip-path="url(#clip0_0_21)">
<path id="DJjPK3Zb3" d="M12.5 45.8333C8.33333 49.3333 6.94444 59.7222 6.94444 59.7222C6.94444 59.7222 17.3333 58.3333 20.8333 54.1667C22.8056 51.8333 22.7778 48.25 20.5833 46.0833C18.3472 43.95 14.8639 43.8417 12.5 45.8333V45.8333" stroke="var(--stroke-0, white)" stroke-width="5.55556" stroke-linecap="round" stroke-linejoin="round"/>
<path id="tj0ubCMz4" d="M33.3333 41.6667L25 33.3333C26.4778 29.5 28.3389 25.8222 30.5556 22.3611C37.1361 11.8389 48.7 5.48056 61.1111 5.55556C61.1111 13.1111 58.9444 26.3889 44.4444 36.1111C40.9361 38.3306 37.2139 40.1917 33.3333 41.6667V41.6667" stroke="var(--stroke-0, white)" stroke-width="5.55556" stroke-linecap="round" stroke-linejoin="round"/>
<path id="fZ5mnAKPG" d="M25 33.3333H11.1111C11.1111 33.3333 12.6389 24.9167 16.6667 22.2222C21.1667 19.2222 30.5556 22.2222 30.5556 22.2222" stroke="var(--stroke-0, white)" stroke-width="5.55556" stroke-linecap="round" stroke-linejoin="round"/>
<path id="b_oh965XQ" d="M33.3333 41.6667V55.5556C33.3333 55.5556 41.75 54.0278 44.4444 50C47.4444 45.5 44.4444 36.1111 44.4444 36.1111" stroke="var(--stroke-0, white)" stroke-width="5.55556" stroke-linecap="round" stroke-linejoin="round"/>
</g>
<defs>
<clipPath id="clip0_0_21">
<rect width="40" height="40" fill="white"/>
</clipPath>
</defs>
</svg>
