<svg width="27" height="37" viewBox="0 0 27 37" fill="none" xmlns="http://www.w3.org/2000/svg">
<path d="M23.6257 5.0682C23.6256 4.12529 22.8582 3.36068 21.9116 3.36068H5.08778C4.1413 3.36081 3.37379 4.12537 3.37367 5.0682V31.9312C3.37367 32.8741 4.14123 33.6386 5.08778 33.6387H21.9116C22.8583 33.6387 23.6257 32.8742 23.6257 31.9312V5.0682ZM27 31.9312C27 34.7306 24.7218 37 21.9116 37H5.08778C2.27771 36.9999 0 34.7305 0 31.9312V5.0682C0.000128658 2.26902 2.27779 0.000127692 5.08778 0H21.9116C24.7217 0 26.9999 2.26895 27 5.0682V31.9312Z" fill="white"/>
<path d="M13.5131 26.8897C14.4449 26.8897 15.2005 27.6418 15.2005 28.57C15.2005 29.4982 14.4449 30.2503 13.5131 30.2503H13.4965C12.5647 30.2503 11.8097 29.4982 11.8097 28.57C11.8097 27.6418 12.5647 26.8897 13.4965 26.8897H13.5131Z" fill="white"/>
</svg>
