<svg width="30" height="37" viewBox="0 0 30 37" fill="none" xmlns="http://www.w3.org/2000/svg">
<path d="M26.6666 8.40843C22.801 8.40843 18.2844 6.16085 15.184 3.43128C15.0774 3.33949 14.9221 3.34006 14.8154 3.43187C11.7332 6.14324 7.1996 8.40843 3.33281 8.40843V20.1794C3.33281 23.9393 4.61794 26.6722 6.64453 28.7663C8.58705 30.7736 11.2774 32.2592 14.3701 33.4L14.9936 33.6235L15.0287 33.6359C15.0297 33.6362 15.0304 33.6363 15.0311 33.6365C18.3728 32.4599 21.2879 30.9106 23.3561 28.7699C25.3816 26.6731 26.6666 23.9393 26.6666 20.1794V8.40843ZM30 20.1794L29.9947 20.6122C29.8965 25.0501 28.2856 28.485 25.7432 31.1169C23.1641 33.7867 19.7009 35.5566 16.115 36.8176C16.1108 36.8191 16.1064 36.8209 16.1021 36.8224C15.3844 37.0682 14.6112 37.0566 13.9055 36.8017C10.31 35.5489 6.8413 33.7839 4.25918 31.1157C1.63173 28.4006 0 24.8273 0 20.1794V8.40843C6.31235e-05 6.55163 1.4925 5.04535 3.33281 5.0452C6.12671 5.0452 9.91885 3.28187 12.6363 0.886837C12.641 0.88268 12.6462 0.878525 12.651 0.874422C14.0043 -0.291485 15.9951 -0.291464 17.3484 0.874422C17.3534 0.878675 17.3588 0.882527 17.3637 0.886837C20.0962 3.29722 23.8714 5.0452 26.6666 5.0452C28.5069 5.04531 29.9999 6.55161 30 8.40843V20.1794Z" fill="white"/>
<path d="M15.0038 21.8631C19.8785 21.8651 24.2399 24.9251 25.9373 29.5373C26.2578 30.4079 25.8176 31.3759 24.9547 31.6992C24.092 32.0224 23.133 31.5788 22.8125 30.7084C21.6 27.4138 18.4844 25.2273 15.0026 25.2258C11.5197 25.2244 8.40254 27.4105 7.18852 30.7037C6.86765 31.5741 5.9079 32.0176 5.04516 31.6939C4.18257 31.3701 3.74346 30.4017 4.0643 29.5314C5.76373 24.9213 10.1268 21.8612 15.0038 21.8631Z" fill="white"/>
<path d="M19.9997 16.8166C19.9997 14.0307 17.761 11.7715 14.9999 11.7714C12.2387 11.7714 9.99948 14.0307 9.99948 16.8166C9.99955 19.6024 12.2387 21.8611 14.9999 21.8611C17.761 21.8611 19.9996 19.6024 19.9997 16.8166ZM23.3331 16.8166C23.333 21.4598 19.6019 25.2243 14.9999 25.2244C10.3978 25.2244 6.66674 21.4599 6.66667 16.8166C6.66667 12.1733 10.3977 8.40881 14.9999 8.40881C19.602 8.40888 23.3331 12.1733 23.3331 16.8166Z" fill="white"/>
</svg>
