<svg preserveAspectRatio="none" width="100%" height="100%" overflow="visible" style="display: block;" viewBox="0 0 40 40" fill="none" xmlns="http://www.w3.org/2000/svg">
<g id="SVG">
<g id="Vector">
<path d="M35.1355 8.0682C35.1354 7.12529 34.368 6.36068 33.4214 6.36068H16.5975C15.6511 6.36081 14.8836 7.12537 14.8834 8.0682V34.9312C14.8834 35.8742 15.651 36.6386 16.5975 36.6387H33.4214C34.3681 36.6387 35.1355 35.8742 35.1355 34.9312V8.0682ZM38.5098 34.9312C38.5098 37.7306 36.2316 40 33.4214 40H16.5975C13.7875 39.9999 11.5098 37.7305 11.5098 34.9312V8.0682C11.5099 5.26902 13.7876 3.00013 16.5975 3H33.4214C36.2315 3 38.5096 5.26895 38.5098 8.0682V34.9312Z" fill="var(--fill-0, white)"/>
<path d="M25.0229 29.8897C25.9546 29.8897 26.7103 30.6418 26.7103 31.57C26.7103 32.4982 25.9546 33.2503 25.0229 33.2503H25.0063C24.0745 33.2503 23.3194 32.4982 23.3194 31.57C23.3194 30.6418 24.0745 29.8897 25.0063 29.8897H25.0229Z" fill="var(--fill-0, white)"/>
</g>
</g>
</svg>
