<svg width="39" height="39" viewBox="0 0 39 39" fill="none" xmlns="http://www.w3.org/2000/svg">
<g clip-path="url(#clip0_152_7215)">
<path d="M33.171 5.648C29.559 2.016 24.639 -0.0180036 19.512 -3.61094e-06C12.607 0.00699639 6.228 3.683 2.769 9.649C-0.689 15.614 -0.704 22.967 2.732 28.946L0 38.951L10.244 36.274C13.073 37.844 16.251 38.681 19.488 38.708C30.198 38.708 38.906 30.092 39 19.403C38.965 14.227 36.868 9.278 33.171 5.648ZM19.512 35.373C16.629 35.375 13.798 34.601 11.317 33.133L10.732 32.768L4.659 34.375L6.268 28.459L5.878 27.85C1.583 20.93 3.152 11.898 9.529 6.824C15.906 1.751 25.077 2.239 30.878 7.961C33.941 10.951 35.695 15.029 35.756 19.305C35.676 28.203 28.427 35.373 19.512 35.373ZM28.317 23.347C27.829 23.103 25.463 21.935 25.024 21.789C24.585 21.642 24.244 21.545 23.927 22.032C23.45 22.685 22.937 23.31 22.39 23.906C22.122 24.247 21.829 24.272 21.341 23.906C18.56 22.809 16.243 20.789 14.78 18.186C14.268 17.333 15.268 17.382 16.195 15.556C16.334 15.289 16.334 14.971 16.195 14.704C16.195 14.461 15.098 12.075 14.707 11.126C14.317 10.176 13.927 10.322 13.61 10.298H12.659C12.16 10.306 11.689 10.527 11.366 10.906C10.259 11.981 9.672 13.482 9.756 15.021C9.909 16.842 10.596 18.578 11.732 20.011C13.81 23.117 16.659 25.633 20 27.315C21.752 28.336 23.789 28.763 25.805 28.532C27.163 28.263 28.342 27.431 29.049 26.244C29.373 25.527 29.475 24.73 29.341 23.955C29.122 23.712 28.805 23.59 28.317 23.347Z" fill="#499D01"/>
</g>
<defs>
<clipPath id="clip0_152_7215">
<rect width="39" height="38.951" fill="white"/>
</clipPath>
</defs>
</svg>
