<svg preserveAspectRatio="none" width="100%" height="100%" overflow="visible" style="display: block;" viewBox="0 0 40 40" fill="none" xmlns="http://www.w3.org/2000/svg">
<g id="SVG">
<path id="Vector" d="M20.121 24.6668L15.8133 20.3591M20.121 24.6668C22.127 23.9043 24.0511 22.9423 25.8646 21.795M20.121 24.6668V31.8462C20.121 31.8462 24.4718 31.0564 25.8646 28.9744C27.4154 26.6483 25.8646 21.795 25.8646 21.795M15.8133 20.3591C16.5772 18.3776 17.5393 16.4765 18.6851 14.6874C22.0868 9.2483 28.0644 5.96157 34.48 6.00034C34.48 9.90593 33.36 16.7694 25.8646 21.795M15.8133 20.3591L8.63383 20.3591C8.63383 20.3591 9.42357 16.0084 11.5056 14.6156C13.8318 13.0649 18.6851 14.6156 18.6851 14.6156M9.35178 26.8206C7.19793 28.6298 6.47998 34 6.47998 34C6.47998 34 11.8502 33.2821 13.6595 31.1282C14.679 29.9221 14.6646 28.0698 13.5302 26.9498C12.3743 25.8471 10.5737 25.7911 9.35178 26.8206Z" stroke="var(--stroke-0, white)" stroke-width="3" stroke-linecap="round" stroke-linejoin="round"/>
</g>
</svg>
