<svg width="31" height="31" viewBox="0 0 31 31" fill="none" xmlns="http://www.w3.org/2000/svg">
<path d="M15.141 20.1668L10.8333 15.8591M15.141 20.1668C17.147 19.4043 19.0711 18.4423 20.8846 17.295M15.141 20.1668V27.3462C15.141 27.3462 19.4918 26.5564 20.8846 24.4744C22.4354 22.1483 20.8846 17.295 20.8846 17.295M10.8333 15.8591C11.5972 13.8776 12.5593 11.9765 13.7051 10.1874C17.1068 4.7483 23.0844 1.46157 29.5 1.50034C29.5 5.40593 28.38 12.2694 20.8846 17.295M10.8333 15.8591L3.65385 15.8591C3.65385 15.8591 4.44359 11.5084 6.52564 10.1156C8.8518 8.56487 13.7051 10.1156 13.7051 10.1156M4.3718 22.3206C2.21795 24.1298 1.5 29.5 1.5 29.5C1.5 29.5 6.87026 28.7821 8.67949 26.6282C9.69897 25.4221 9.68462 23.5698 8.55026 22.4498C7.39436 21.3471 5.59374 21.2911 4.3718 22.3206Z" stroke="white" stroke-width="3" stroke-linecap="round" stroke-linejoin="round"/>
</svg>
