<svg width="67" height="67" viewBox="0 0 67 67" fill="none" xmlns="http://www.w3.org/2000/svg">
<path d="M13 51.3301V43.33C13 40.0155 15.6214 37.3301 18.8571 37.3301H30.5715C31.6497 37.3301 32.5237 38.2255 32.5237 39.33C32.5237 40.4345 31.6497 41.3301 30.5715 41.3301H18.8571C17.778 41.3301 16.9046 42.2246 16.9046 43.33V51.3301C16.9046 52.4347 16.0305 53.33 14.9523 53.33C13.874 53.33 13 52.4347 13 51.3301ZM42.2856 51.3301C42.2856 48.0167 39.6631 45.3302 36.4285 45.3302C35.3503 45.3302 34.476 44.4346 34.476 43.33C34.476 42.26 35.2964 41.3862 36.328 41.3326L36.4285 41.3301L36.5797 41.3281C39.7444 41.246 42.2856 38.5916 42.2856 35.3299C42.2857 34.2254 43.1599 33.33 44.2381 33.33C45.3163 33.3301 46.1903 34.2254 46.1904 35.3299C46.1904 38.6433 48.813 41.3301 52.0475 41.3301C53.1257 41.3301 54 42.2255 54 43.33C54 44.4346 53.1258 45.3302 52.0475 45.3302C48.813 45.3302 46.1904 48.0167 46.1904 51.3301C46.1904 52.4347 45.3164 53.33 44.2381 53.33C43.1599 53.33 42.2856 52.4347 42.2856 51.3301ZM44.2379 41.3304C43.6827 42.0875 43.0251 42.7613 42.2861 43.33C43.0251 43.8988 43.6827 44.5724 44.2379 45.3294C44.7931 44.5724 45.4509 43.8988 46.1899 43.33C45.4508 42.7612 44.7931 42.0875 44.2379 41.3304ZM38.3808 23.33C38.3808 20.0166 35.7583 17.3298 32.5237 17.3298C29.2892 17.3298 26.6667 20.0166 26.6667 23.33C26.6667 26.6435 29.2892 29.33 32.5237 29.33C35.7583 29.33 38.3808 26.6435 38.3808 23.33ZM42.2856 23.33C42.2856 28.8526 37.9148 33.33 32.5237 33.33C27.1327 33.33 22.7619 28.8526 22.7619 23.33C22.7619 17.8074 27.1326 13.33 32.5237 13.33C37.9148 13.33 42.2856 17.8074 42.2856 23.33Z" fill="#499D01"/>
</svg>
