<svg preserveAspectRatio="none" width="100%" height="100%" overflow="visible" style="display: block;" viewBox="0 0 40 40" fill="none" xmlns="http://www.w3.org/2000/svg">
<g id="SVG">
<g id="Vector">
<path d="M34.9762 11.4084C31.1106 11.4084 26.594 9.16085 23.4936 6.43128C23.3869 6.33949 23.2316 6.34006 23.125 6.43187C20.0428 9.14324 15.5092 11.4084 11.6424 11.4084V23.1794C11.6424 26.9393 12.9275 29.6722 14.9541 31.7663C16.8966 33.7736 19.5869 35.2592 22.6797 36.4L23.3031 36.6235L23.3383 36.6359C23.3392 36.6362 23.34 36.6363 23.3406 36.6365C26.6824 35.4599 29.5975 33.9106 31.6656 31.7699C33.6912 29.6731 34.9762 26.9393 34.9762 23.1794V11.4084ZM38.3096 23.1794L38.3043 23.6122C38.2061 28.0501 36.5952 31.485 34.0527 34.1169C31.4737 36.7867 28.0104 38.5566 24.4246 39.8176C24.4203 39.8191 24.416 39.8209 24.4117 39.8224C23.6939 40.0682 22.9208 40.0566 22.215 39.8017C18.6196 38.5489 15.1509 36.7839 12.5688 34.1157C9.9413 31.4006 8.30957 27.8273 8.30957 23.1794V11.4084C8.30963 9.55163 9.80207 8.04535 11.6424 8.0452C14.4363 8.0452 18.2284 6.28187 20.9459 3.88684C20.9506 3.88268 20.9558 3.87853 20.9605 3.87442C22.3139 2.70852 24.3047 2.70854 25.658 3.87442C25.6629 3.87867 25.6684 3.88253 25.6732 3.88684C28.4058 6.29722 32.181 8.0452 34.9762 8.0452C36.8165 8.04531 38.3095 9.55161 38.3096 11.4084V23.1794Z" fill="var(--fill-0, white)"/>
<path d="M23.3133 24.8631C28.188 24.8651 32.5494 27.9251 34.2469 32.5373C34.5673 33.4079 34.1272 34.3759 33.2643 34.6992C32.4015 35.0224 31.4426 34.5788 31.1221 33.7084C29.9096 30.4138 26.794 28.2273 23.3122 28.2258C19.8292 28.2244 16.7121 30.4105 15.4981 33.7037C15.1772 34.5741 14.2175 35.0176 13.3547 34.6939C12.4921 34.3701 12.053 33.4017 12.3739 32.5314C14.0733 27.9213 18.4364 24.8612 23.3133 24.8631Z" fill="var(--fill-0, white)"/>
<path d="M28.3092 19.8166C28.3092 17.0307 26.0706 14.7715 23.3094 14.7714C20.5482 14.7714 18.309 17.0307 18.309 19.8166C18.3091 22.6024 20.5483 24.8611 23.3094 24.8611C26.0705 24.8611 28.3092 22.6024 28.3092 19.8166ZM31.6426 19.8166C31.6426 24.4598 27.9115 28.2243 23.3094 28.2244C18.7073 28.2244 14.9763 24.4599 14.9762 19.8166C14.9762 15.1733 18.7073 11.4088 23.3094 11.4088C27.9115 11.4089 31.6426 15.1733 31.6426 19.8166Z" fill="var(--fill-0, white)"/>
</g>
</g>
</svg>
