<svg preserveAspectRatio="none" width="100%" height="100%" overflow="visible" style="display: block;" viewBox="0 0 40 40" fill="none" xmlns="http://www.w3.org/2000/svg">
<g id="SVG" clip-path="url(#clip0_0_43)">
<path id="y_oE7G1VX" d="M55.5556 36.1111C55.5556 50 45.8333 56.9444 34.2778 60.9722C33.6722 61.1778 33.0167 61.1667 32.4167 60.9444C20.8333 56.9444 11.1111 50 11.1111 36.1111V16.6667C11.1111 15.1333 12.3556 13.8889 13.8889 13.8889C19.4444 13.8889 26.3889 10.5556 31.2222 6.33333C32.4389 5.29444 34.2278 5.29444 35.4444 6.33333C40.3056 10.5833 47.2222 13.8889 52.7778 13.8889C54.3111 13.8889 55.5556 15.1333 55.5556 16.6667V36.1111" stroke="var(--stroke-0, white)" stroke-width="5.55556" stroke-linecap="round" stroke-linejoin="round"/>
<path id="TBzAOLi6W" d="M17.7111 52.5278C20.1389 46 26.3722 41.6667 33.3389 41.6694C40.3028 41.6722 46.5333 46.0056 48.9583 52.5361" stroke="var(--stroke-0, white)" stroke-width="5.55556" stroke-linecap="round" stroke-linejoin="round"/>
<path id="qkeMLRMqg" d="M22.2222 30.5556C22.2222 24.4194 27.1972 19.4444 33.3333 19.4444C39.4694 19.4444 44.4444 24.4194 44.4444 30.5556C44.4444 36.6917 39.4694 41.6667 33.3333 41.6667C27.1972 41.6667 22.2222 36.6917 22.2222 30.5556V30.5556" stroke="var(--stroke-0, white)" stroke-width="5.55556" stroke-linecap="round" stroke-linejoin="round"/>
</g>
<defs>
<clipPath id="clip0_0_43">
<rect width="40" height="40" fill="white"/>
</clipPath>
</defs>
</svg>
