<svg width="67" height="67" viewBox="0 0 67 67" fill="none" xmlns="http://www.w3.org/2000/svg">
<path d="M50.5238 21.722V19.956H48.7578C45.9481 19.956 43.257 21.4403 40.9291 23.7636L36.6506 28.2203C36.2286 28.6599 35.6455 28.9085 35.0361 28.9085H20.1177L15.6415 33.3847H22.5475C23.7836 33.3847 24.7858 34.3869 24.7858 35.623C24.7857 36.859 23.7835 37.861 22.5475 37.861H10.2381C9.33296 37.861 8.51685 37.3157 8.17041 36.4795C7.82401 35.6432 8.01554 34.6805 8.65558 34.0404L16.952 25.7436C17.7926 24.903 18.9307 24.4322 20.1172 24.4322H34.0823L37.7189 20.6442L37.7508 20.6117C40.5496 17.8129 44.3171 15.4801 48.7578 15.48H52.7618C53.9978 15.48 55 16.482 55 17.718V21.722C55 26.1628 52.6671 29.9305 49.8684 32.7293L46.0476 36.5501V50.3631C46.0476 51.5496 45.5768 52.6873 44.7362 53.5279L36.4397 61.8244C35.7997 62.4645 34.837 62.656 34.0007 62.3096C33.1644 61.9632 32.6189 61.1471 32.6189 60.2419V47.9324C32.6189 46.6964 33.6211 45.6944 34.8572 45.6944C36.0932 45.6945 37.0951 46.6964 37.0951 47.9324V54.8387L41.5714 50.3625V35.623C41.5714 35.0294 41.8073 34.4601 42.227 34.0404L46.7033 29.5642C49.0342 27.2332 50.5238 24.5371 50.5238 21.722ZM31.0364 36.2784C31.9104 35.4044 33.3275 35.4044 34.2015 36.2784C35.0755 37.1524 35.0755 38.5695 34.2015 39.4435L23.0111 50.634C22.1371 51.508 20.72 51.508 19.846 50.634C18.972 49.7599 18.972 48.3429 19.846 47.4688L31.0364 36.2784Z" fill="#499D01"/>
</svg>
