<svg preserveAspectRatio="none" width="100%" height="100%" overflow="visible" style="display: block;" viewBox="0 0 40 40" fill="none" xmlns="http://www.w3.org/2000/svg">
<g id="SVG">
<g id="Vector">
<path d="M17.5891 23.7156C20.7006 21.2124 25.115 21.2235 28.215 23.7367C28.9467 24.3299 29.0627 25.4096 28.4744 26.1474C27.886 26.8852 26.816 27.0022 26.0843 26.409C24.2237 24.9006 21.5758 24.8945 19.7096 26.3958C18.9757 26.9862 17.9057 26.8653 17.3201 26.1251C16.7347 25.385 16.8552 24.3061 17.5891 23.7156Z" fill="var(--fill-0, white)"/>
<path d="M22.9161 28.7145C23.855 28.7145 24.6165 29.4818 24.6165 30.4286C24.6165 31.3753 23.855 32.1426 22.9161 32.1426H22.8994C21.9605 32.1426 21.1997 31.3753 21.1997 30.4286C21.1997 29.4818 21.9605 28.7145 22.8994 28.7145H22.9161Z" fill="var(--fill-0, white)"/>
<path d="M36.4999 18.4285C36.4999 17.925 36.2795 17.4447 35.8957 17.117C35.8931 17.1148 35.8904 17.1126 35.8879 17.1104L23.9919 6.82855C23.3606 6.29544 22.4375 6.29524 21.8063 6.82855L9.91095 17.1104C9.90841 17.1126 9.90573 17.1148 9.90318 17.117C9.51935 17.4447 9.29894 17.925 9.29894 18.4285V33.8573C9.29899 34.8048 10.0597 35.5713 10.9993 35.5713H34.7995C35.7391 35.5713 36.4998 34.8047 36.4999 33.8573V18.4285ZM39.8994 33.8573C39.8994 36.6983 37.6169 39 34.7995 39H10.9993C8.1819 39 5.89946 36.6983 5.89941 33.8573V18.4285C5.89941 16.9194 6.55697 15.4858 7.69839 14.5074L19.5985 4.22132L19.6081 4.21289C21.4486 2.64603 24.118 2.59734 26.0103 4.06643L26.1908 4.21289L26.2003 4.22132L38.1004 14.5074C39.2421 15.4858 39.8994 16.9192 39.8994 18.4285V33.8573Z" fill="var(--fill-0, white)"/>
<path d="M13.3366 18.3824C18.9268 13.8696 26.8717 13.8697 32.4619 18.3824C33.1949 18.9741 33.3135 20.0534 32.7267 20.7925C32.14 21.5315 31.0701 21.651 30.3372 21.0595C25.9891 17.5494 19.8101 17.5494 15.4619 21.0595C14.729 21.6512 13.6586 21.5317 13.0719 20.7925C12.4851 20.0534 12.6037 18.9741 13.3366 18.3824Z" fill="var(--fill-0, white)"/>
</g>
</g>
</svg>
