<svg preserveAspectRatio="none" width="100%" height="100%" overflow="visible" style="display: block;" viewBox="0 0 40 40" fill="none" xmlns="http://www.w3.org/2000/svg">
<g id="SVG" clip-path="url(#clip0_0_41)">
<g id="Vector">
<path d="M37.2954 29.8001C37.2954 28.8605 36.523 28.0998 35.5683 28.0998H32.1137C31.159 28.0998 30.3861 28.8605 30.3861 29.8001V33.2002H37.2954V29.8001ZM40.75 33.2002C40.7499 35.0775 39.2027 36.6004 37.2954 36.6004H30.3861L30.2088 36.5956C28.3839 36.5045 26.9321 35.0189 26.932 33.2002V29.8001C26.932 26.9827 29.2511 24.7003 32.1137 24.7003H35.5683C38.4309 24.7003 40.75 26.9827 40.75 29.8001V33.2002Z" fill="var(--fill-0, white)"/>
<path d="M28.6593 38.3002V34.9001C28.6593 33.9612 29.4321 33.2002 30.3861 33.2002C31.34 33.2002 32.1134 33.9612 32.1134 34.9001V38.3002C32.1133 39.2391 31.3403 40 30.3863 40C29.4324 40 28.6594 39.2391 28.6593 38.3002Z" fill="var(--fill-0, white)"/>
<path d="M32.1138 26.4001V13.6501C32.1138 11.3029 30.1804 9.39962 27.7956 9.39952C25.4107 9.39952 23.4775 11.3029 23.4775 13.6501V32.3498C23.4775 36.5748 19.9973 39.9998 15.7047 39.9999C11.4119 39.9999 7.93186 36.5749 7.93186 32.3498V19.5999C7.9319 18.661 8.70495 17.9001 9.65888 17.9001C10.6128 17.9001 11.3859 18.661 11.3859 19.5999V32.3498C11.3859 34.6971 13.3198 36.6004 15.7047 36.6004C18.0894 36.6003 20.0228 34.697 20.0228 32.3498V13.6501C20.0228 9.42506 23.5028 6 27.7956 6C32.0883 6.00011 35.5684 9.42513 35.5684 13.6501V26.4001C35.5684 27.3389 34.7947 28.0998 33.8408 28.0998C32.8869 28.0998 32.1138 27.3389 32.1138 26.4001Z" fill="var(--fill-0, white)"/>
<path d="M35.5685 38.3002V34.9001C35.5685 33.9612 36.3414 33.2002 37.2954 33.2002C38.2493 33.2002 39.0225 33.9612 39.0225 34.9001V38.3002C39.0225 39.2391 38.2494 40 37.2955 40C36.3416 40 35.5685 39.2391 35.5685 38.3002Z" fill="var(--fill-0, white)"/>
<path d="M4.47729 11.0999V7.69976C4.47729 6.76086 5.25035 6 6.20431 6C7.15826 6 7.93132 6.76086 7.93132 7.69976V11.0999C7.93129 12.0387 7.15824 12.7996 6.20431 12.7996C5.25037 12.7996 4.47732 12.0387 4.47729 11.0999Z" fill="var(--fill-0, white)"/>
<path d="M6.20431 12.7996L6.20404 16.1997C6.20404 17.0806 6.88339 17.8041 7.75495 17.8911L7.93166 17.9H11.3863C12.3409 17.9 13.1133 17.1393 13.1133 16.1997V12.7996L6.20431 12.7996ZM16.568 16.1997C16.568 19.0171 14.2489 21.3001 11.3863 21.3001H7.93166L7.66508 21.2936C4.9264 21.1571 2.75 18.9291 2.75 16.1997V12.7996C2.75015 10.9225 4.29683 9.40019 6.20404 9.40005H13.1133C15.0207 9.40005 16.5678 10.9224 16.568 12.7996V16.1997Z" fill="var(--fill-0, white)"/>
<path d="M11.3864 11.0999V7.69976C11.3864 6.76086 12.1595 6 13.1135 6C14.0674 6 14.8405 6.76086 14.8405 7.69976V11.0999C14.8404 12.0387 14.0673 12.7996 13.1133 12.7996C12.1594 12.7996 11.3865 12.0387 11.3864 11.0999Z" fill="var(--fill-0, white)"/>
</g>
</g>
<defs>
<clipPath id="clip0_0_41">
<rect width="40" height="40" fill="white"/>
</clipPath>
</defs>
</svg>
