<svg preserveAspectRatio="none" width="100%" height="100%" overflow="visible" style="display: block;" viewBox="0 0 40 40" fill="none" xmlns="http://www.w3.org/2000/svg">
<g id="SVG">
<g id="Vector">
<path d="M35.406 8.0682C35.4059 7.12529 34.6385 6.36068 33.6919 6.36068H16.8681C15.9216 6.36081 15.1541 7.12537 15.1539 8.0682V34.9312C15.1539 35.8742 15.9215 36.6386 16.8681 36.6387H33.6919C34.6386 36.6387 35.406 35.8742 35.406 34.9312V8.0682ZM38.7803 34.9312C38.7803 37.7306 36.5021 40 33.6919 40H16.8681C14.058 39.9999 11.7803 37.7305 11.7803 34.9312V8.0682C11.7804 5.26902 14.0581 3.00013 16.8681 3H33.6919C36.502 3 38.7801 5.26895 38.7803 8.0682V34.9312Z" fill="var(--fill-0, white)"/>
<path d="M25.2934 29.8897C26.2251 29.8897 26.9808 30.6418 26.9808 31.57C26.9808 32.4982 26.2251 33.2503 25.2934 33.2503H25.2768C24.345 33.2503 23.5899 32.4982 23.5899 31.57C23.5899 30.6418 24.345 29.8897 25.2768 29.8897H25.2934Z" fill="var(--fill-0, white)"/>
</g>
</g>
</svg>
