<svg preserveAspectRatio="none" width="100%" height="100%" overflow="visible" style="display: block;" viewBox="0 0 40 40" fill="none" xmlns="http://www.w3.org/2000/svg">
<g id="SVG" clip-path="url(#clip0_0_21)">
<path id="NQORDEheG" d="M47.2222 52.7778C45.6889 52.7778 44.4444 51.5333 44.4444 50V44.4444C44.4444 41.375 46.9306 38.8889 50 38.8889H55.5556C58.625 38.8889 61.1111 41.375 61.1111 44.4444V50C61.1111 51.5333 59.8667 52.7778 58.3333 52.7778H47.2222" stroke="var(--stroke-0, white)" stroke-width="5.55556" stroke-linecap="round" stroke-linejoin="round"/>
<path id="ebQZH41Gh" d="M47.2222 58.3333V52.7778" stroke="var(--stroke-0, white)" stroke-width="5.55556" stroke-linecap="round" stroke-linejoin="round"/>
<path id="F8iIyBqAW" d="M52.7778 38.8889V18.0556C52.7778 12.6861 48.425 8.33333 43.0556 8.33333C37.6861 8.33333 33.3333 12.6861 33.3333 18.0556V48.6111C33.3333 53.9806 28.9806 58.3333 23.6111 58.3333C18.2417 58.3333 13.8889 53.9806 13.8889 48.6111V27.7778" stroke="var(--stroke-0, white)" stroke-width="5.55556" stroke-linecap="round" stroke-linejoin="round"/>
<path id="J48a_0lCZ" d="M58.3333 58.3333V52.7778" stroke="var(--stroke-0, white)" stroke-width="5.55556" stroke-linecap="round" stroke-linejoin="round"/>
<path id="fVGdLEMGS" d="M8.33333 13.8889V8.33333" stroke="var(--stroke-0, white)" stroke-width="5.55556" stroke-linecap="round" stroke-linejoin="round"/>
<path id="IIUGL4xQt" d="M11.1111 27.7778C8.04167 27.7778 5.55556 25.2917 5.55556 22.2222V16.6667C5.55556 15.1333 6.8 13.8889 8.33333 13.8889H19.4444C20.9778 13.8889 22.2222 15.1333 22.2222 16.6667V22.2222C22.2222 25.2917 19.7361 27.7778 16.6667 27.7778H11.1111" stroke="var(--stroke-0, white)" stroke-width="5.55556" stroke-linecap="round" stroke-linejoin="round"/>
<path id="RIm4HzvCa" d="M19.4444 13.8889V8.33333" stroke="var(--stroke-0, white)" stroke-width="5.55556" stroke-linecap="round" stroke-linejoin="round"/>
</g>
<defs>
<clipPath id="clip0_0_21">
<rect width="40" height="40" fill="white"/>
</clipPath>
</defs>
</svg>
