<svg width="39" height="39" viewBox="0 0 39 39" fill="none" xmlns="http://www.w3.org/2000/svg">
<path d="M31.6 15.2101C32.3732 15.2101 33 15.8369 33 16.6101C33 17.3833 32.3732 18.0101 31.6 18.0101H30.2V30.61H31.6C32.3732 30.61 33 31.2368 33 32.01C33 32.7832 32.3732 33.41 31.6 33.41H6.4C5.6268 33.41 5 32.7832 5 32.01C5 31.2368 5.6268 30.61 6.4 30.61H7.8V18.0101H6.4C5.6268 18.0101 5 17.3833 5 16.6101C5 15.8369 5.6268 15.2101 6.4 15.2101H31.6ZM10.6 30.61H27.4V18.0101H10.6V30.61ZM14.8 26.41V22.2101C14.8 21.4369 15.4268 20.8101 16.2 20.8101C16.9732 20.8101 17.6 21.4369 17.6 22.2101V26.41C17.6 27.1832 16.9732 27.81 16.2 27.81C15.4268 27.81 14.8 27.1832 14.8 26.41ZM20.4 26.41V22.2101C20.4 21.4369 21.0268 20.8101 21.8 20.8101C22.5732 20.8101 23.2 21.4369 23.2 22.2101V26.41C23.2 27.1832 22.5732 27.81 21.8 27.81C21.0268 27.81 20.4 27.1832 20.4 26.41ZM18.387 5.55144C18.8013 5.34957 19.2912 5.3638 19.6948 5.59441L29.4948 11.1944C30.1661 11.578 30.3993 12.4336 30.0157 13.1049C29.632 13.7761 28.7765 14.0093 28.1052 13.6258L19 8.42236L9.89482 13.6258C9.22354 14.0093 8.36796 13.7761 7.98432 13.1049C7.60073 12.4336 7.83394 11.578 8.50518 11.1944L18.3052 5.59441L18.387 5.55144Z" fill="#499D01"/>
</svg>
