<svg width="17" height="20" viewBox="0 0 17 20" fill="none" xmlns="http://www.w3.org/2000/svg">
<g clip-path="url(#clip0_127_272)">
<path d="M2.9706 0.529412C3.03577 0.373302 3.15075 0.239114 3.30035 0.144586C3.44995 0.0500581 3.62711 -0.000358298 3.80844 1.91685e-06H9.54396C10.1683 1.91685e-06 10.6013 0.572908 10.3871 1.1135L8.97683 4.6603H12.2346C13.0279 4.6603 13.4313 5.54017 12.8791 6.06583L3.89868 14.6042C3.1309 15.3343 1.8068 14.6768 2.04455 13.6832L3.16255 9.00994H1.29427C1.08446 9.00988 0.877822 8.96269 0.692242 8.87236C0.506658 8.7821 0.347724 8.65144 0.229193 8.49167C0.110663 8.33196 0.036108 8.14803 0.0119824 7.95574C-0.0121433 7.7634 0.0148869 7.56861 0.0907336 7.38814L2.9706 0.529412Z" fill="white"/>
</g>
<defs>
<clipPath id="clip0_127_272">
<rect width="17" height="19.31" fill="white"/>
</clipPath>
</defs>
</svg>
