<svg width="67" height="67" viewBox="0 0 67 67" fill="none" xmlns="http://www.w3.org/2000/svg">
<path d="M36.1818 44.4219C36.1817 42.9218 34.982 41.7078 33.4997 41.7078C32.0176 41.7079 30.8181 42.9218 30.8181 44.4219C30.8181 45.4723 31.4065 46.3817 32.2678 46.833L33.7178 47.1265C35.098 47.0144 36.1818 45.8479 36.1818 44.4219ZM57.6363 44.4219C57.6363 40.9435 56.9192 37.6404 55.6294 34.6514C55.0366 33.2776 55.6563 31.6774 57.0136 31.0774C58.3709 30.4774 59.952 31.1049 60.5448 32.4787C62.1245 36.1395 63 40.1812 63 44.4219C63 45.921 61.7994 47.1364 60.3183 47.1364C58.8372 47.1364 57.6363 45.921 57.6363 44.4219ZM41.5455 44.4219C41.5455 48.9203 37.9443 52.565 33.4997 52.565L33.2921 52.5623C32.3695 52.5387 31.4859 52.3573 30.6658 52.045L6.16602 47.0857C5.89498 47.0323 5.63838 46.9382 5.40318 46.8089C5.22113 46.7091 5.05366 46.5884 4.9018 46.4518C4.89307 46.4439 4.88421 46.4362 4.87558 46.4283C4.79516 46.354 4.71974 46.2748 4.64909 46.1916C4.60682 46.1419 4.56611 46.0909 4.52744 46.0382C4.52109 46.0295 4.51486 46.0207 4.50862 46.012C4.30499 45.7274 4.15482 45.4015 4.07242 45.0488C4.02268 44.8372 3.99767 44.6179 4.00017 44.3944C4.01495 27.9171 17.216 14.5651 33.4997 14.565C37.6899 14.565 41.6834 15.4511 45.3005 17.0499C46.6579 17.6499 47.2778 19.2501 46.6851 20.6239C46.0922 21.9976 44.5112 22.6248 43.1538 22.0248C40.2005 20.7194 36.9367 19.9933 33.4997 19.9933C20.9038 19.9934 10.5619 29.758 9.46033 42.2163L25.5199 45.4671C25.4766 45.125 25.4543 44.776 25.4543 44.4219C25.4544 39.9237 29.0553 36.2793 33.4997 36.2792C34.742 36.2792 35.9186 36.5638 36.9688 37.0723L53.0583 20.7885C54.1056 19.7285 55.8036 19.7285 56.8509 20.7885C57.8982 21.8485 57.8982 23.5671 56.8509 24.6271L40.7611 40.9112C41.2636 41.9742 41.5455 43.1646 41.5455 44.4219Z" fill="#499D01"/>
</svg>
