<svg width="39" height="39" viewBox="0 0 39 39" fill="none" xmlns="http://www.w3.org/2000/svg">
<path d="M7.10924 2.91245C7.12893 2.91247 7.1487 2.91053 7.16854 2.91124L13.1233 3.12728L13.1227 3.12788C15.042 3.1959 16.7138 4.4047 17.4296 6.17475H17.4302L19.1906 10.5305L19.1913 10.5317L19.2959 10.8168C19.7594 12.2033 19.5947 13.7342 18.8318 14.9898L18.7507 15.1187L17.1095 17.6427C18.5633 19.5586 21.203 22.6285 24.012 24.7724L25.9491 23.5815C27.0552 22.9002 28.3831 22.6974 29.6387 23.0188H29.6393L35.3399 24.4814H35.3405C37.6549 25.0731 39.1623 27.2702 38.986 29.6299V29.6305L38.6193 34.5115C38.4344 36.9873 36.3486 39.1976 33.6049 38.8794H33.6043C21.9315 37.5223 12.8476 28.8896 7.76463 20.8142C5.21802 16.7684 3.56775 12.698 3.12245 9.5254C2.90348 7.96519 2.94411 6.40445 3.52609 5.1557C3.82986 4.5039 4.29179 3.9186 4.94458 3.50428C5.59714 3.09016 6.3412 2.91005 7.10924 2.91003V2.91245ZM7.09411 6.18262C6.85179 6.1848 6.74282 6.23911 6.69834 6.26734C6.65322 6.29598 6.57533 6.36088 6.49258 6.53844C6.30146 6.94877 6.18035 7.76403 6.36368 9.07033C6.7231 11.6313 8.13524 15.2591 10.5344 19.0708C15.3432 26.7107 23.6858 34.4315 33.9826 35.6286H33.982C34.5661 35.6964 35.2848 35.2177 35.3557 34.2677V34.2664L35.7224 29.3854C35.7847 28.5481 35.2494 27.8362 34.5302 27.6523L34.529 27.6517L28.826 26.1891V26.1885C28.4332 26.0883 28.0175 26.1507 27.6647 26.3682L27.6635 26.3694L24.795 28.1334C24.2449 28.4717 23.5471 28.4543 23.014 28.0898C18.9311 25.2978 15.1643 20.6197 13.7799 18.6321C13.3994 18.0857 13.3879 17.3634 13.7509 16.8052L16.0069 13.3347L16.0075 13.3341C16.308 12.8721 16.3667 12.279 16.1558 11.7559V11.7553L14.396 7.40136C14.1498 6.79268 13.5969 6.41824 13.0065 6.39744H13.0047L7.09411 6.18262Z" fill="#499D01"/>
</svg>
