<svg width="67" height="67" viewBox="0 0 67 67" fill="none" xmlns="http://www.w3.org/2000/svg">
<path d="M54.7002 16.6295L52.5059 16.4578C48.6374 16.1564 44.8406 15.2291 41.2593 13.7156L41.2588 13.7154L37.5 12.1253L33.7412 13.7154L33.7407 13.7156C30.1594 15.2291 26.3626 16.1566 22.4941 16.4581L22.4939 16.4578L20.2998 16.6295V33.7619C20.2998 43.4027 27.9997 51.2163 37.5 51.2163C47.0003 51.2163 54.7002 43.4027 54.7002 33.7619V16.6295ZM44.5798 23.4917C45.4195 22.6397 46.7808 22.6397 47.6204 23.4917C48.46 24.3438 48.46 25.7252 47.6204 26.5773L35.7952 38.5775C35.392 38.9866 34.8451 39.2164 34.2749 39.2164C33.7047 39.2164 33.1578 38.9866 32.7546 38.5775L27.3796 33.1227C26.5401 32.2706 26.54 30.8892 27.3796 30.0371C28.2192 29.1851 29.5805 29.1852 30.4202 30.0371L34.2749 33.9489L44.5798 23.4917ZM59 33.7619C59 45.8127 49.3751 55.58 37.5 55.58C25.6249 55.58 16 45.8127 16 33.7619V14.6099C16 13.47 16.8645 12.5222 17.9845 12.4345L22.1641 12.1073L22.1649 12.107C25.5763 11.8411 28.9264 11.0231 32.0876 9.68715L36.6729 7.74794L36.7729 7.70858C37.2764 7.52491 37.8308 7.53805 38.3271 7.74794L42.9124 9.68715L43.2093 9.81099C46.2831 11.0738 49.5302 11.8495 52.8351 12.107L52.8359 12.1073L57.0155 12.4345C58.1355 12.5222 59 13.47 59 14.6099V33.7619Z" fill="#499D01"/>
</svg>
