<svg width="67" height="67" viewBox="0 0 67 67" fill="none" xmlns="http://www.w3.org/2000/svg">
<path d="M32.9248 10.3529C33.5198 9.56144 34.5743 9.26849 35.4939 9.63905C36.4133 10.0096 36.9677 10.9509 36.8447 11.9326L34.9649 26.9346H49.6039C52.475 26.9346 54.0496 30.2771 52.2069 32.4809L31.9807 56.695C31.3591 57.4391 30.3201 57.6851 29.4294 57.2994C28.5388 56.9138 28.0097 55.9886 28.1301 55.0275L30.0099 40.0255H17.3962C14.6041 40.0255 13.008 36.8461 14.6836 34.6153C14.6838 34.6151 14.6839 34.6148 14.6841 34.6145L32.9248 10.3529ZM19.3645 35.6619H32.4874C33.1148 35.6619 33.712 35.9306 34.1271 36.3998C34.5423 36.8689 34.7355 37.4933 34.6577 38.1142L33.3959 48.1839L47.5013 31.2982H32.4874C31.8601 31.2982 31.2629 31.0295 30.8477 30.5603C30.4326 30.0912 30.2393 29.4668 30.3171 28.8459L31.4827 19.5433L19.3645 35.6619Z" fill="#499D01"/>
</svg>
