<svg preserveAspectRatio="none" width="100%" height="100%" overflow="visible" style="display: block;" viewBox="0 0 40 40" fill="none" xmlns="http://www.w3.org/2000/svg">
<g id="SVG">
<g id="Vector">
<path d="M6.20134 36.4183L6.41094 37.9861C5.92263 38.0513 5.43172 37.8851 5.0833 37.5368C4.73487 37.1884 4.56878 36.6971 4.63408 36.2087L6.20134 36.4183ZM8.35404 27.2958C10.2555 25.7007 13.0237 25.7369 14.8805 27.3486L15.0579 27.5098L15.0773 27.5287C16.9572 29.3848 16.9326 32.3647 15.3164 34.2768L15.3158 34.2762C14.6159 35.1078 13.6526 35.7189 12.7261 36.1714C11.7802 36.6335 10.7593 36.9849 9.84235 37.2472C8.92047 37.5109 8.07019 37.6941 7.45171 37.8115C7.14134 37.8704 6.88625 37.9131 6.70671 37.9416C6.6171 37.9558 6.54606 37.9665 6.496 37.9738C6.47094 37.9775 6.45077 37.9802 6.43651 37.9822C6.42947 37.9831 6.42356 37.9838 6.41928 37.9844C6.41728 37.9847 6.41565 37.9853 6.41428 37.9855H6.4115C6.41066 37.9814 6.3999 37.9034 6.20134 36.4183C4.69189 36.2165 4.6361 36.2093 4.63408 36.2087V36.2054C4.63426 36.204 4.63492 36.2023 4.63519 36.2003C4.63578 36.1961 4.63643 36.1902 4.63741 36.1831C4.63939 36.1689 4.64213 36.1491 4.64575 36.1242C4.65304 36.0741 4.66377 36.0027 4.678 35.9129C4.70646 35.7334 4.74916 35.4783 4.80809 35.168C4.92554 34.5495 5.10925 33.6993 5.37295 32.7774C5.63523 31.8605 5.98615 30.8396 6.44819 29.8937C6.90139 28.9659 7.51333 28.0009 8.34681 27.3008C8.349 27.2989 8.35183 27.2976 8.35404 27.2958ZM12.8662 29.7903C12.1766 29.1402 11.1089 29.1097 10.3833 29.7208L10.3827 29.7202C10.3821 29.7208 10.3817 29.7219 10.3811 29.7225C10.0286 30.0186 9.65243 30.5405 9.29028 31.2819C8.93699 32.0052 8.6454 32.8363 8.41352 33.6469C8.33905 33.9072 8.27291 34.1625 8.21226 34.4069C8.45675 34.3462 8.7123 34.2807 8.97282 34.2062C9.78352 33.9743 10.6151 33.6828 11.3385 33.3294C12.0797 32.9673 12.6013 32.5911 12.8974 32.2387L12.9007 32.2348C13.5262 31.4947 13.4743 30.4032 12.8662 29.7903Z" fill="var(--fill-0, white)"/>
<path d="M37.0484 4.0004C37.918 4.00567 38.6201 4.71245 38.6201 5.58207C38.6201 10.1936 37.2776 18.3588 28.431 24.2902C28.4194 24.298 28.4077 24.3056 28.3959 24.313C26.3215 25.6253 24.1211 26.7266 21.8278 27.6015C21.8194 27.6049 21.8107 27.6076 21.8022 27.6109C21.7969 27.6129 21.7919 27.6156 21.7866 27.6176L21.7861 27.617C21.2221 27.8309 20.5607 27.712 20.1065 27.2579L15.3625 22.5134C14.9203 22.0712 14.78 21.4102 15.005 20.8267C15.8824 18.5507 16.9869 16.3665 18.3024 14.3104C22.3398 7.85501 29.4345 3.95439 37.0484 4.0004ZM35.3922 7.22489C29.5068 7.70252 24.1485 10.9285 20.9844 15.9877C20.9814 15.9925 20.978 15.9974 20.9749 16.0022C19.9543 17.5957 19.0727 19.2741 18.3385 21.0168L21.6071 24.2852C23.3707 23.5533 25.0692 22.6726 26.6847 21.6523C33.3678 17.1641 35.069 11.2958 35.3922 7.22489Z" fill="var(--fill-0, white)"/>
<path d="M13.9063 12.7749C14.9226 12.6805 15.9556 12.7455 16.8529 12.8611C17.7563 12.9775 18.5655 13.1514 19.1468 13.2947C19.4387 13.3667 19.6767 13.4317 19.8445 13.4799C19.9284 13.5039 19.9952 13.5239 20.0424 13.5382C20.0659 13.5454 20.0849 13.5512 20.0986 13.5555C20.1055 13.5576 20.1115 13.5597 20.1158 13.561C20.1179 13.5617 20.1199 13.5622 20.1214 13.5627C20.122 13.5629 20.1226 13.5631 20.1231 13.5632H20.1242C20.1245 13.5635 20.1206 13.5757 19.7567 14.7146L20.1247 13.5638C20.9566 13.8296 21.4157 14.7194 21.1499 15.5513C20.8842 16.3829 19.9946 16.8417 19.1629 16.5765C19.1619 16.5762 19.1597 16.5757 19.1568 16.5748C19.1502 16.5727 19.1388 16.5691 19.1229 16.5642C19.0906 16.5544 19.0399 16.539 18.9728 16.5198C18.8383 16.4812 18.6386 16.4266 18.3896 16.3652C17.8887 16.2417 17.2012 16.0948 16.4481 15.9977C15.6889 15.8999 14.905 15.8587 14.1987 15.9244C13.4789 15.9913 12.9536 16.1592 12.6136 16.3858C11.9263 16.8469 11.2763 17.9839 10.7817 19.3473C10.7242 19.506 10.6707 19.6623 10.6211 19.8143H16.4804C17.3538 19.8143 18.0621 20.5221 18.0621 21.3954C18.0621 22.2688 17.3538 22.9771 16.4804 22.9771H8.57346C8.10461 22.9771 7.65969 22.7688 7.35923 22.4089C7.05884 22.049 6.93359 21.5742 7.01731 21.113L8.57346 21.3954C7.10456 21.1288 7.02241 21.1136 7.01787 21.1124V21.1097C7.01812 21.1083 7.01862 21.1066 7.01898 21.1047C7.01972 21.1007 7.02058 21.0954 7.02176 21.0891C7.02413 21.0765 7.02759 21.0593 7.03177 21.0379C7.04012 20.9952 7.05208 20.9351 7.0679 20.86C7.09953 20.7101 7.14663 20.4988 7.21023 20.2424C7.33699 19.7314 7.53272 19.0289 7.80845 18.2688C8.32154 16.8543 9.25187 14.8293 10.8568 13.7556L10.859 13.7545C11.8 13.1272 12.9036 12.8681 13.9063 12.7749Z" fill="var(--fill-0, white)"/>
<path d="M19.6436 34.0463V26.1396C19.6436 25.2663 20.3513 24.558 21.2247 24.558C22.0981 24.558 22.8059 25.2663 22.8059 26.1396V31.9987C22.9579 31.9491 23.1142 31.8956 23.2729 31.8381C24.6364 31.3435 25.7734 30.6935 26.2345 30.0062C26.4611 29.6662 26.6296 29.1411 26.6965 28.4212C26.7622 27.7149 26.7204 26.9311 26.6226 26.1719C26.5255 25.4189 26.3786 24.7314 26.2551 24.2305C26.1937 23.9815 26.1391 23.7818 26.1005 23.6473C26.0813 23.5803 26.0659 23.5295 26.0561 23.4972C26.0512 23.4813 26.0476 23.4699 26.0455 23.4633C26.0447 23.4608 26.0442 23.4588 26.0438 23.4577C25.7783 22.626 26.2373 21.7366 27.069 21.4708C27.9009 21.205 28.7907 21.6636 29.0566 22.4954L27.5505 22.9768C29.0371 22.5018 29.0568 22.4957 29.0572 22.496V22.4971C29.0573 22.4976 29.0575 22.4985 29.0577 22.4993C29.0582 22.5007 29.0588 22.5023 29.0594 22.5043C29.0607 22.5086 29.0628 22.5147 29.0649 22.5215C29.0692 22.5352 29.075 22.5542 29.0822 22.5777C29.0965 22.6249 29.1165 22.6917 29.1406 22.7756C29.1887 22.9434 29.2543 23.1813 29.3262 23.4733C29.4696 24.0547 29.6429 24.8642 29.7593 25.7677C29.875 26.6648 29.94 27.6975 29.8455 28.7137C29.7523 29.7163 29.4932 30.8199 28.8659 31.7608L28.8648 31.763C27.7911 33.3679 25.766 34.2982 24.3515 34.8113C23.5915 35.087 22.8894 35.2827 22.3784 35.4095C22.1218 35.4731 21.9102 35.5202 21.7601 35.5518C21.6851 35.5676 21.625 35.5796 21.5822 35.5879C21.5608 35.5921 21.5436 35.5956 21.5311 35.5979C21.5248 35.5991 21.5195 35.6 21.5155 35.6007C21.5136 35.6011 21.5119 35.6016 21.5105 35.6018C21.5099 35.6019 21.5093 35.6017 21.5088 35.6018L21.5077 35.6024C21.5073 35.6022 21.5035 35.582 21.2247 34.0463L21.5077 35.6024C21.0464 35.6861 20.5711 35.5609 20.2112 35.2605C19.8513 34.96 19.6436 34.5151 19.6436 34.0463Z" fill="var(--fill-0, white)"/>
</g>
</g>
</svg>
