<svg width="38" height="34" viewBox="0 0 38 34" fill="none" xmlns="http://www.w3.org/2000/svg">
<path d="M34.5454 23.8001C34.5454 22.8605 33.773 22.0998 32.8183 22.0998H29.3637C28.409 22.0998 27.6361 22.8605 27.6361 23.8001V27.2002H34.5454V23.8001ZM38 27.2002C37.9999 29.0775 36.4527 30.6004 34.5454 30.6004H27.6361L27.4588 30.5956C25.6339 30.5045 24.1821 29.0189 24.182 27.2002V23.8001C24.182 20.9827 26.5011 18.7003 29.3637 18.7003H32.8183C35.6809 18.7003 38 20.9827 38 23.8001V27.2002Z" fill="white"/>
<path d="M25.9093 32.3002V28.9001C25.9093 27.9612 26.6821 27.2002 27.6361 27.2002C28.59 27.2002 29.3634 27.9612 29.3634 28.9001V32.3002C29.3633 33.2391 28.5903 34 27.6363 34C26.6824 34 25.9094 33.2391 25.9093 32.3002Z" fill="white"/>
<path d="M29.3638 20.4001V7.6501C29.3638 5.30292 27.4304 3.39962 25.0456 3.39952C22.6607 3.39952 20.7275 5.30286 20.7275 7.6501V26.3498C20.7275 30.5748 17.2473 33.9998 12.9547 33.9999C8.66186 33.9999 5.18186 30.5749 5.18186 26.3498V13.5999C5.1819 12.661 5.95495 11.9001 6.90888 11.9001C7.86282 11.9001 8.63587 12.661 8.6359 13.5999V26.3498C8.6359 28.6971 10.5698 30.6004 12.9547 30.6004C15.3394 30.6003 17.2728 28.697 17.2728 26.3498V7.6501C17.2728 3.42506 20.7528 0 25.0456 0C29.3383 0.000107882 32.8184 3.42513 32.8184 7.6501V20.4001C32.8184 21.3389 32.0447 22.0998 31.0908 22.0998C30.1369 22.0998 29.3638 21.3389 29.3638 20.4001Z" fill="white"/>
<path d="M32.8185 32.3002V28.9001C32.8185 27.9612 33.5914 27.2002 34.5454 27.2002C35.4993 27.2002 36.2725 27.9612 36.2725 28.9001V32.3002C36.2725 33.2391 35.4994 34 34.5455 34C33.5916 34 32.8185 33.2391 32.8185 32.3002Z" fill="white"/>
<path d="M1.72729 5.09987V1.69976C1.72729 0.760861 2.50035 0 3.45431 0C4.40826 0 5.18132 0.760861 5.18132 1.69976V5.09987C5.18129 6.03874 4.40824 6.79963 3.45431 6.79963C2.50037 6.79963 1.72732 6.03874 1.72729 5.09987Z" fill="white"/>
<path d="M3.45431 6.79963L3.45404 10.1997C3.45404 11.0806 4.13339 11.8041 5.00495 11.8911L5.18166 11.9H8.63631C9.59094 11.9 10.3633 11.1393 10.3633 10.1997V6.79956L3.45431 6.79963ZM13.818 10.1997C13.818 13.0171 11.4989 15.3001 8.63631 15.3001H5.18166L4.91508 15.2936C2.1764 15.1571 0 12.9291 0 10.1997V6.79956C0.000145904 4.92246 1.54683 3.40019 3.45404 3.40005H10.3633C12.2707 3.40005 13.8178 4.92237 13.818 6.79956V10.1997Z" fill="white"/>
<path d="M8.63644 5.09987V1.69976C8.63644 0.760861 9.4095 0 10.3635 0C11.3174 0 12.0905 0.760861 12.0905 1.69976V5.09987C12.0904 6.03874 11.3173 6.79956 10.3633 6.79956C9.40939 6.79956 8.63648 6.03874 8.63644 5.09987Z" fill="white"/>
</svg>
