<svg width="30" height="32" viewBox="0 0 30 32" fill="none" xmlns="http://www.w3.org/2000/svg">
<path d="M11.25 19.6111C13.446 17.8284 16.5615 17.836 18.75 19.6264M15 24.3947H15.015M7.5 14.8612C11.8845 11.2895 18.1155 11.2895 22.5 14.8612M1.5 13.7103C1.5 12.8128 1.8885 11.9596 2.5635 11.3781L13.0635 2.22005C14.181 1.25998 15.819 1.25998 16.9365 2.22005L27.4365 11.3781C28.1115 11.9596 28.5 12.8128 28.5 13.7103V27.4473C28.5 29.1339 27.1575 30.5 25.5 30.5H4.5C2.8425 30.5 1.5 29.1339 1.5 27.4473V13.7103Z" stroke="white" stroke-width="3" stroke-linecap="round" stroke-linejoin="round"/>
</svg>
