<svg preserveAspectRatio="none" width="100%" height="100%" overflow="visible" style="display: block;" viewBox="0 0 40 40" fill="none" xmlns="http://www.w3.org/2000/svg">
<g id="SVG">
<path id="Vector" d="M18.5703 24.1111C20.7663 22.3284 23.8818 22.336 26.0703 24.1264M22.3203 28.8947H22.3353M14.8203 19.3612C19.2048 15.7895 25.4358 15.7895 29.8203 19.3612M8.82031 18.2103C8.82031 17.3128 9.20881 16.4596 9.88381 15.8781L20.3838 6.72005C21.5013 5.75998 23.1393 5.75998 24.2568 6.72005L34.7568 15.8781C35.4318 16.4596 35.8203 17.3128 35.8203 18.2103V31.9473C35.8203 33.6339 34.4778 35 32.8203 35H11.8203C10.1628 35 8.82031 33.6339 8.82031 31.9473V18.2103Z" stroke="var(--stroke-0, white)" stroke-width="3" stroke-linecap="round" stroke-linejoin="round"/>
</g>
</svg>
