<svg preserveAspectRatio="none" width="100%" height="100%" overflow="visible" style="display: block;" viewBox="0 0 17 19.31" fill="none" xmlns="http://www.w3.org/2000/svg">
<g id="SVG" clip-path="url(#clip0_0_49)">
<path id="Vector" d="M2.97078 0.529412C3.03596 0.373302 3.15093 0.239114 3.30053 0.144586C3.45013 0.0500581 3.62729 -0.000358298 3.80862 1.91685e-06H9.54414C10.1685 1.91685e-06 10.6015 0.572908 10.3873 1.1135L8.97701 4.6603H12.2348C13.0281 4.6603 13.4315 5.54017 12.8792 6.06583L3.89886 14.6042C3.13108 15.3343 1.80698 14.6768 2.04473 13.6832L3.16273 9.00994H1.29445C1.08465 9.00988 0.878004 8.96269 0.692424 8.87236C0.50684 8.7821 0.347906 8.65144 0.229375 8.49167C0.110845 8.33196 0.0362901 8.14803 0.0121644 7.95574C-0.0119613 7.7634 0.0150689 7.56861 0.0909156 7.38814L2.97078 0.529412V0.529412" fill="var(--fill-0, white)"/>
</g>
<defs>
<clipPath id="clip0_0_49">
<rect width="17" height="19.31" fill="white"/>
</clipPath>
</defs>
</svg>
